<?xml version="1.0" encoding="UTF-8"?>
<svg id="Calque_1" data-name="Calque 1" xmlns="http://www.w3.org/2000/svg" viewBox="0 0 1000 1000">
  <defs>
    <style>
      .cls-1 {
        fill: #6f3;
        stroke-width: 0px;
      }
    </style>
  </defs>
  <path class="cls-1" d="m500,132.85l-317.96,183.57h0s0,0,0,0v367.15l317.96,183.57v-367.15l317.96-183.57-317.96-183.57Zm-223.8,533.42c-8.86,5.12-23.23-3.18-32.1-18.53s-8.86-31.95,0-37.06,23.23,3.18,32.1,18.53,8.86,31.95,0,37.06Zm0-186.75c-8.86,5.12-23.23-3.18-32.1-18.53s-8.86-31.95,0-37.06,23.23,3.18,32.1,18.53,8.86,31.95,0,37.06Zm80.87,140.06c-8.86,5.12-23.23-3.18-32.1-18.53-8.86-15.35-8.86-31.95,0-37.06s23.23,3.18,32.1,18.53,8.86,31.95,0,37.06Zm80.87,140.06c-8.86,5.12-23.23-3.18-32.1-18.53s-8.86-31.95,0-37.06,23.23,3.18,32.1,18.53c8.86,15.35,8.86,31.95,0,37.06Zm0-186.75c-8.86,5.12-23.23-3.18-32.1-18.53s-8.86-31.95,0-37.06,23.23,3.18,32.1,18.53,8.86,31.95,0,37.06Zm-245.89-256.47l307.96-177.8,307.96,177.8-307.96,177.8-307.96-177.8Z"/>
  <ellipse class="cls-1" cx="661.73" cy="316.43" rx="32.1" ry="18.53"/>
  <ellipse class="cls-1" cx="500" cy="316.43" rx="32.1" ry="18.53"/>
  <ellipse class="cls-1" cx="338.27" cy="316.43" rx="32.1" ry="18.53"/>
  <polygon class="cls-1" points="678.63 565.48 692.61 529.16 668.16 559.43 658.98 509.75 649.8 570.03 625.35 568 639.33 588.17 591.71 626.26 639.33 609.36 625.35 645.68 649.8 615.41 658.98 665.1 668.16 604.82 692.61 606.84 678.63 586.67 726.25 548.58 678.63 565.48"/>
</svg>