<?xml version="1.0" encoding="UTF-8"?>
<svg id="Calque_1" data-name="Calque 1" xmlns="http://www.w3.org/2000/svg" viewBox="0 0 192 192">
  <defs>
    <style>
      .cls-1 {
        fill: #6f3;
      }

      .cls-1, .cls-2 {
        stroke-width: 0px;
      }

      .cls-2 {
        fill: #fff;
      }
    </style>
  </defs>
  <path class="cls-2" d="m96,4.32L16.6,50.16v91.68l79.4,45.84v-91.68l79.4-45.84L96,4.32Zm-55.88,133.2c-2.21,1.28-5.8-.79-8.01-4.63-2.21-3.83-2.21-7.98,0-9.25,2.21-1.28,5.8.79,8.01,4.63,2.21,3.83,2.21,7.98,0,9.25Zm0-46.63c-2.21,1.28-5.8-.79-8.01-4.63-2.21-3.83-2.21-7.98,0-9.25,2.21-1.28,5.8.79,8.01,4.63s2.21,7.98,0,9.25Zm20.19,34.97c-2.21,1.28-5.8-.79-8.01-4.63-2.21-3.83-2.21-7.98,0-9.25,2.21-1.28,5.8.79,8.01,4.63,2.21,3.83,2.21,7.98,0,9.25Zm20.19,34.97c-2.21,1.28-5.8-.79-8.01-4.63-2.21-3.83-2.21-7.98,0-9.25,2.21-1.28,5.8.79,8.01,4.63,2.21,3.83,2.21,7.98,0,9.25Zm0-46.63c-2.21,1.28-5.8-.79-8.01-4.63-2.21-3.83-2.21-7.98,0-9.25,2.21-1.28,5.8.79,8.01,4.63,2.21,3.83,2.21,7.98,0,9.25Zm-24.89-68.67c4.43,0,8.01,2.07,8.01,4.63s-3.59,4.63-8.01,4.63-8.01-2.07-8.01-4.63,3.59-4.63,8.01-4.63Zm40.39,9.25c-4.43,0-8.01-2.07-8.01-4.63s3.59-4.63,8.01-4.63,8.01,2.07,8.01,4.63-3.59,4.63-8.01,4.63Zm40.39,0c-4.43,0-8.01-2.07-8.01-4.63s3.59-4.63,8.01-4.63,8.01,2.07,8.01,4.63-3.59,4.63-8.01,4.63Z"/>
  <path class="cls-1" d="m136.59,101.03h0c-1.14,9.83-7.98,21.7-15.94,27.61h0c7.64-4.49,14.22-.74,14.16,8.18,1.14-9.85,8-21.71,15.94-27.61h0c-7.69,4.52-14.22.69-14.16-8.18Z"/>
</svg>